# xmcd
#
# Track frame offsets: 
#        150
#        17502
#        43858
#        78259
#        113018
#        124803
#        142066
#        156813
#        173148
#        187166
#        207670
#        223323
#        238617
#
# Disc length: 3414 seconds
#
# Revision: 2
# Processed by: cddbd v1.5.2PL0 Copyright (c) Steve Scherf et al.
# Submitted via: ExactAudioCopy v1.3
#
DISCID=bf0d540d
DTITLE=Oscar Peterson - Classic Jazz Archive [CD 2)
DYEAR=2005
DGENRE=Jazz
TTITLE0=Seven Come Eleven
TTITLE1=Ad Lib Blues
TTITLE2=Just You, Just Me
TTITLE3=Tea For Two
TTITLE4='S Wonderful
TTITLE5=Oh, Lady Be Good
TTITLE6=I Got Rhythm
TTITLE7=A Foggy Day
TTITLE8=Love Walked In
TTITLE9=Bounce Blues
TTITLE10=Laura
TTITLE11=These Foolish Things (Remind Me Of You)
TTITLE12=You Go To My Head
EXTD=YEAR: 1952
EXTT0=
EXTT1=
EXTT2=
EXTT3=
EXTT4=
EXTT5=
EXTT6=
EXTT7=
EXTT8=
EXTT9=
EXTT10=
EXTT11=
EXTT12=
PLAYORDER=
